/* XPM */
static char *_2_petscuted1682068378[] = {
/* columns rows colors chars-per-pixel */
"32 31 36 1 ",
"  c None",
". c #373530",
"X c #383530",
"o c #383630",
"O c #3A3731",
"+ c #3B3833",
"@ c #3D3933",
"# c #3C3934",
"$ c #3D3A34",
"% c #3E3B35",
"& c #3E3B36",
"* c #3F3C36",
"= c #403A32",
"- c #4A4740",
"; c #4B4842",
": c #4C4942",
"> c #4F4C45",
", c #575445",
"< c #5B5848",
"1 c #5C5949",
"2 c #5E5B4B",
"3 c #DAA05F",
"4 c #9F9C8B",
"5 c #A09D8C",
"6 c #ADAA97",
"7 c #AEAB98",
"8 c #ADAA9B",
"9 c #AFAC99",
"0 c #B0AD9A",
"q c #B1AE9B",
"w c #B2AF9C",
"e c #B2AF9F",
"r c #B3B09E",
"t c #B3B0A1",
"y c #C0BDAC",
"u c #C2BFAE",
/* pixels */
"                                ",
"                                ",
"                                ",
"                                ",
"                                ",
"                                ",
"                                ",
"                                ",
"                  o     o       ",
"                 %6o   o6%      ",
"                 =36o .63=      ",
"                 %qqqo9qq%      ",
"        .       =ww9qqqqqq*     ",
"       >8o      *ww92qqq26*     ",
"       :4o      *ww9qqqqqq*     ",
"       :4o      *9wwqqqqq%      ",
"       :4o       %uuuqqq+       ",
"       :q5o.oooX*wuuuuuu%       ",
"        -wuuuuqqwuuuuuuu%       ",
"         ;uuuuuuuuuuuuu+        ",
"          -uuuuuuuuuuuu+        ",
"          -utooXooooouu%        ",
"          -to       ou+         ",
"          -wo       +uo         ",
"          @,o       o<o         ",
"                                ",
"                                ",
"                                ",
"                                ",
"                                ",
"                                "
};
