/* XPM */
static char *_3_petscuted1682068377[] = {
/* columns rows colors chars-per-pixel */
"32 31 52 1 ",
"  c None",
". c #38342F",
"X c #383530",
"o c #393530",
"O c #383531",
"+ c #383630",
"@ c #393630",
"# c #393631",
"$ c #413E36",
"% c #454239",
"& c #4E4B3F",
"* c #524F42",
"= c #545149",
"- c #56534A",
"; c #58554E",
": c #5D5A52",
"> c #5F5C53",
", c #7D6243",
"< c #626056",
"1 c #646157",
"2 c #656258",
"3 c #6A675C",
"4 c #6B685D",
"5 c #6D6A5F",
"6 c #6D6A61",
"7 c #6F6C62",
"8 c #716E64",
"9 c #7A7766",
"0 c #7E7B6A",
"q c #7F7C6F",
"w c #A47C4E",
"e c #817E70",
"r c #827F72",
"t c #888577",
"y c #898678",
"u c #8D8A78",
"i c #8E8B7F",
"p c #918E7C",
"a c #CAA676",
"s c #939083",
"d c #959282",
"f c #969383",
"g c #9E9B8E",
"h c #A09D8F",
"j c #A5A293",
"k c #B1AE9B",
"l c #B6B3A1",
"z c #B7B4A2",
"x c #BCB9A8",
"c c #BEBBA9",
"v c #C0A985",
"b c #C2BFAE",
/* pixels */
"                                ",
"                                ",
"                                ",
"                                ",
"                                ",
"                                ",
"                                ",
"                  X     X       ",
"                 Xt<   .q4      ",
"                 Xwv1 .ra,      ",
"                 Xtkk2rkk4      ",
"       XX       Xykkkkkkkk6     ",
"      .jb;      Xykk9pkk0u5     ",
"       Xf=      Xykkkkkkkk5     ",
"       Xf=      Xykkkkkkk4      ",
"       Xf=       Xfbbzkk3       ",
"       Xfk=XXXXXXyxbbbbb8       ",
"        Xfcbbbzkkxbbbbbb8       ",
"         Xhbbbbbbbbbbbb7        ",
"          Xgbbbbbbbbbbb7        ",
"          Xgb>XXXXXXXib7        ",
"          Xg:       Xi6         ",
"          Xg:       Xi6         ",
"          Xg:       #s6         ",
"          X*$       X&%         ",
"                                ",
"                                ",
"                                ",
"                                ",
"                                ",
"                                "
};
