/* XPM */
static char *_4_petscuted1682068377[] = {
/* columns rows colors chars-per-pixel */
"32 31 46 1 ",
"  c None",
". c #38342F",
"X c #373530",
"o c #383530",
"O c #393530",
"+ c #383531",
"@ c #393531",
"# c #413E36",
"$ c #454239",
"% c #4F4C40",
"& c #514F47",
"* c #535042",
"= c #535048",
"- c #545149",
"; c #59564D",
": c #5A574E",
"> c #5A574F",
", c #5B584F",
"< c #5F5C53",
"1 c #676459",
"2 c #68655B",
"3 c #6A675E",
"4 c #6C695F",
"5 c #716E64",
"6 c #827F72",
"7 c #BB8B54",
"8 c #848173",
"9 c #928F7F",
"0 c #918E82",
"q c #939081",
"w c #939083",
"e c #979484",
"r c #999686",
"t c #9A9787",
"y c #A29F90",
"u c #BAAB8E",
"i c #A3A092",
"p c #A5A293",
"a c #B1AE9B",
"s c #B6B3A0",
"d c #B6B3A1",
"f c #B7B4A2",
"g c #BBB8A6",
"h c #BCB9A8",
"j c #BEBBA9",
"k c #C2BFAE",
/* pixels */
"                                ",
"                                ",
"                                ",
"                                ",
"                                ",
"                                ",
"                                ",
"                                ",
"                         .      ",
"                    o   &rX     ",
"                   ;0o -u7X     ",
"                  ,aaq-aarX     ",
"                 ,aaaaaaaato    ",
"        o.       ,aaaaaaaato    ",
"       5g6o      ,aaaaaaaaro    ",
"        26o      ,aaaaaaatX     ",
"        26o       <kkkaaq.      ",
"        2a8oooooo,skkkkki.      ",
"         2fkkkhaaskkkkkkp.      ",
"          4kkkkkkkkkkkkio       ",
"           2kkkkkkkkkkkio       ",
"           4kwooooooo>kio       ",
"           20o       >yo        ",
"           40o       >yo        ",
"           $&.       #*O        ",
"                                ",
"                                ",
"                                ",
"                                ",
"                                ",
"                                "
};
