/* XPM */
static char *_7_petscuted1682068377[] = {
/* columns rows colors chars-per-pixel */
"32 31 49 1 ",
"  c None",
". c #373530",
"X c #383530",
"o c #383531",
"O c #3C3933",
"+ c #403D35",
"@ c #413E38",
"# c #43403A",
"$ c #44413B",
"% c #48453E",
"& c #504537",
"* c #4A4740",
"= c #4B4841",
"- c #4C4943",
"; c #535043",
": c #575446",
"> c #57544B",
", c #58554C",
"< c #58554D",
"1 c #59564F",
"2 c #5B5850",
"3 c #615E4E",
"4 c #656251",
"5 c #D1995A",
"6 c #D6A265",
"7 c #928F80",
"8 c #949181",
"9 c #A09D8C",
"0 c #A19E8F",
"q c #A29F8E",
"w c #A3A08F",
"e c #A6A391",
"r c #A4A192",
"t c #A5A294",
"y c #A8A593",
"u c #A9A694",
"i c #AAA794",
"p c #AAA795",
"a c #B4AD96",
"s c #B1AE9B",
"d c #B3B09E",
"f c #B4B19E",
"g c #B4B1A1",
"h c #B5B2A0",
"j c #B6B3A3",
"k c #B7B4A4",
"l c #BFBCAA",
"z c #C0BDAC",
"x c #C2BFAE",
/* pixels */
"                                ",
"                                ",
"                                ",
"                                ",
"                                ",
"                                ",
"                                ",
"                    X     X     ",
"                   %0X   @uX    ",
"                   &6wX #a5X    ",
"                   =ssw$ssuX    ",
"           .      %ssssssssuX   ",
"          20X     -sse4ssp3pX   ",
"         ,h0X     -sssssssspX   ",
"         ,7.      %dssssssuX    ",
"         ,7.       -xxzssyX     ",
"         ,s8XXXXXX-fxxxxxkX     ",
"          <hxxxlssfzxxxxxkX     ",
"           1xxxxxxxxxxxxk.      ",
"            ,xxxxxxxxxxxk.      ",
"            ,xtXXXXXXX%zkX      ",
"            ,rX       *h.       ",
"            ,rX       %hX       ",
"            ,rX       %hX       ",
"            +;X       O:X       ",
"                                ",
"                                ",
"                                ",
"                                ",
"                                ",
"                                "
};
