/* XPM */
static char *_8_petscuted1682068377[] = {
/* columns rows colors chars-per-pixel */
"32 31 48 1 ",
"  c None",
". c #373531",
"X c #383530",
"o c #383531",
"O c #383630",
"+ c #3D3A33",
"@ c #413E36",
"# c #44413B",
"$ c #46433C",
"% c #48453E",
"& c #67543D",
"* c #4B4841",
"= c #4C4943",
"- c #524F47",
"; c #525042",
": c #575445",
"> c #545149",
", c #55524A",
"< c #5A574E",
"1 c #5B584F",
"2 c #5B5850",
"3 c #5C5950",
"4 c #5D5A51",
"5 c #5E5B53",
"6 c #6F6C5B",
"7 c #73705F",
"8 c #BA8A54",
"9 c #8F8C7D",
"0 c #918E7F",
"q c #D0A46E",
"w c #928F80",
"e c #989583",
"r c #989585",
"t c #999686",
"y c #9C9987",
"u c #A19E8F",
"i c #BAAB8D",
"p c #A5A290",
"a c #A6A391",
"s c #A5A294",
"d c #B1AE9B",
"f c #B1AE9E",
"g c #B4B19E",
"h c #B2AFA0",
"j c #B5B2A0",
"k c #BFBCAA",
"l c #C0BDAC",
"z c #C2BFAE",
/* pixels */
"                                ",
"                                ",
"                                ",
"                                ",
"                                ",
"                                ",
"                                ",
"                                ",
"                                ",
"                                ",
"                 X     .        ",
"                Xr>   X91       ",
"                X8i, X0q&       ",
"                Xrdd,wdd1       ",
"       XX      Xrdddddddd3      ",
"      Xal%     Xtdd6ydd7e3      ",
"      Xa#      Xtdddddddd3      ",
"      Xa#      Xtddddddd3       ",
"      Xad$XXXXXXXszzjdd2        ",
"       Xalzzzjddkzzzzzl5        ",
"        Xhlzzzzzzzzzzz5         ",
"         Xhzzlzzzzzzzz3         ",
"         Xdz=XXXXXXXuz3         ",
"         .h=       Xu2          ",
"         Xh*       Xu3          ",
"         X:+       X;@          ",
"                                ",
"                                ",
"                                ",
"                                ",
"                                "
};
