/* XPM */
static char *_9_petscuted1682068376[] = {
/* columns rows colors chars-per-pixel */
"32 31 52 1 ",
"  c None",
". c #38342F",
"X c #38352F",
"o c #373430",
"O c #373630",
"+ c #383530",
"@ c #393530",
"# c #383531",
"$ c #393531",
"% c #383630",
"& c #393631",
"* c #454239",
"= c #49463C",
"- c #4A473C",
"; c #4E4B3F",
": c #625F55",
"> c #7D6243",
", c #636056",
"< c #656258",
"1 c #6B685D",
"2 c #6C695E",
"3 c #6D6A60",
"4 c #726F63",
"5 c #726F65",
"6 c #737064",
"7 c #787564",
"8 c #777468",
"9 c #797669",
"0 c #7C7968",
"q c #7B786E",
"w c #7D7A6F",
"e c #7F7C70",
"r c #A57C4E",
"t c #807D70",
"y c #817E71",
"u c #807D72",
"i c #838072",
"p c #878476",
"a c #888577",
"s c #8A8778",
"d c #8F8C7A",
"f c #8F8C7F",
"g c #93907E",
"h c #CBA676",
"j c #908D81",
"k c #928F82",
"l c #B1AE9B",
"z c #B8B5A3",
"x c #BAB7A5",
"c c #BBB8A7",
"v c #C0A985",
"b c #C2BFAE",
/* pixels */
"                                ",
"                                ",
"                                ",
"                                ",
"                                ",
"                                ",
"                                ",
"                                ",
"                                ",
"                  @     @       ",
"                 1y@   :aX      ",
"                 >hy@ ,vrO      ",
"                 1lly<llaX      ",
"        @       2llllllllsO     ",
"       @eq      2lld0llg7so     ",
"      @9cq      2llllllllsO     ",
"      @95       2lllllllaX      ",
"      @95        5bbclla@       ",
"      @9l6@O@OO@2zbbbbbk@       ",
"       @8xbbbxllzbbbbbbjO       ",
"        XebbbbbbbbbbbbjO        ",
"         @ebbbbbbbbbbbjO        ",
"         @wbe@O@@@O@3bjO        ",
"         @we@       3fO         ",
"         @eeO       3f@         ",
"         @==@       *;O         ",
"                                ",
"                                ",
"                                ",
"                                ",
"                                "
};
