/* XPM */
static char *_1_petscuted1682068376[] = {
/* columns rows colors chars-per-pixel */
"32 31 50 1 ",
"  c None",
". c #38342F",
"X c #383530",
"o c #393530",
"O c #383531",
"+ c #383630",
"@ c #393630",
"# c #393631",
"$ c #413E36",
"% c #454239",
"& c #4E4B3F",
"* c #524F42",
"= c #545149",
"- c #58554E",
"; c #5D5A52",
": c #5F5C53",
"> c #605D53",
", c #7D6243",
"< c #626056",
"1 c #646157",
"2 c #656258",
"3 c #6A675C",
"4 c #6B685D",
"5 c #6D6A5F",
"6 c #6D6A61",
"7 c #6F6C62",
"8 c #7A7766",
"9 c #7E7B6A",
"0 c #7F7C6F",
"q c #A47C4E",
"w c #817E70",
"e c #827F72",
"r c #888577",
"t c #898678",
"y c #8D8A78",
"u c #8E8B7F",
"i c #918E7C",
"p c #CAA676",
"a c #939083",
"s c #959282",
"d c #969383",
"f c #9E9B8E",
"g c #A09D8F",
"h c #A5A293",
"j c #B1AE9B",
"k c #B6B3A1",
"l c #B7B4A2",
"z c #BEBBA9",
"x c #C0A985",
"c c #C2BFAE",
/* pixels */
"                                ",
"                                ",
"                                ",
"                                ",
"                                ",
"                                ",
"                                ",
"                                ",
"                                ",
"                                ",
"                                ",
"                  X     X       ",
"                 Xt<   .04      ",
"                 Xqx1 .ep,      ",
"       XX        Xrjj2ejj4      ",
"      .hc-      Xtjjjjjjjj5     ",
"       Xd=      Xtjj8ijj9y5     ",
"       Xd=      Xtjjjjjjjj5     ",
"       Xd=XXXX..Xtjjjjjjj4      ",
"        Xazccckjj>accljj3       ",
"         Xgcccccccccccc7        ",
"          Xgccccccccccc7        ",
"          Xfc:XXXXXXXuc7        ",
"          Xf:       Xa5         ",
"          Xf:       Xu6         ",
"          X*$       X&%         ",
"                                ",
"                                ",
"                                ",
"                                ",
"                                "
};
