/* XPM */
static char *_2_petscuted1682068376[] = {
/* columns rows colors chars-per-pixel */
"32 31 44 1 ",
"  c None",
". c #38342F",
"X c #373530",
"o c #383530",
"O c #393530",
"+ c #383531",
"@ c #393531",
"# c #413E36",
"$ c #454239",
"% c #4F4C40",
"& c #514F47",
"* c #535042",
"= c #535048",
"- c #545149",
"; c #59564D",
": c #5A574E",
"> c #5A574F",
", c #5B584F",
"< c #5F5C53",
"1 c #68655B",
"2 c #6A675E",
"3 c #6B685D",
"4 c #6C695F",
"5 c #726F65",
"6 c #827F72",
"7 c #BB8B54",
"8 c #848173",
"9 c #89867A",
"0 c #928F7F",
"q c #918E82",
"w c #939081",
"e c #939083",
"r c #979484",
"t c #999686",
"y c #9A9787",
"u c #A29F90",
"i c #BAAB8E",
"p c #A3A092",
"a c #A5A293",
"s c #B1AE9B",
"d c #B6B3A1",
"f c #BCB9A8",
"g c #BEBBA9",
"h c #C2BFAE",
/* pixels */
"                                ",
"                                ",
"                                ",
"                                ",
"                                ",
"                                ",
"                                ",
"                                ",
"                                ",
"                                ",
"                         .      ",
"                    o   &tX     ",
"                   ;0o =i7X     ",
"                  ;sse-sstX     ",
"                 ;ssssssssyo    ",
"       oo.       <ssssssssyo    ",
"      3ss6o      ,ssssssssto    ",
"      5926o      ,sssssssyX     ",
"       o16o oooooo<hhgssr+      ",
"        1s82hhfssdhhhhhha+      ",
"         o4hhhhhhhhhhhhuo       ",
"           2hhhhhhhhhhhuo       ",
"           2heooooooo<huo       ",
"           2qo       ;u.        ",
"           2qo       ,uo        ",
"           $&o       #*o        ",
"                                ",
"                                ",
"                                ",
"                                ",
"                                "
};
