/* XPM */
static char *_3_petscuted1682068376[] = {
/* columns rows colors chars-per-pixel */
"32 31 43 1 ",
"  c None",
". c #383530",
"X c #383630",
"o c #393630",
"O c #393631",
"+ c #3A3732",
"@ c #3B3833",
"# c #3C3934",
"$ c #3D3A34",
"% c #3D3A35",
"& c #3E3B35",
"* c #46433C",
"= c #47443D",
"- c #49463F",
"; c #564938",
": c #4C4943",
"> c #4D4A42",
", c #4E4B44",
"< c #504D45",
"1 c #504D46",
"2 c #565345",
"3 c #5A5748",
"4 c #666352",
"5 c #6A6756",
"6 c #CB9558",
"7 c #D5A268",
"8 c #9C9989",
"9 c #9E9B8A",
"0 c #9F9C8B",
"q c #A19E8C",
"w c #A5A290",
"e c #A6A391",
"r c #AFAC99",
"t c #AFAC9D",
"y c #B6AC94",
"u c #B1AE9B",
"i c #B2AF9C",
"p c #B3B09E",
"a c #B4B1A1",
"s c #BFBCAC",
"d c #C0BDAC",
"f c #C1BEAD",
"g c #C2BFAE",
/* pixels */
"                                ",
"                                ",
"                                ",
"                                ",
"                                ",
"                                ",
"                                ",
"                                ",
"                                ",
"                   .     .      ",
"                  .w=   .8>     ",
"                  .6y= .07;     ",
"                  .wuu-0uu,     ",
"                 .wuuuuuuuu1    ",
"        ..       .eiu4wuu5q1    ",
"       %gg.      .wuuuuuuuu1    ",
"        @r.      .eiiuuiri,     ",
"        @r.       .aggiii>      ",
"        @r........wgggggg,      ",
"         .iggggiuusgggggg,      ",
"          .ggggggggggggg,       ",
"           .sggggggggggg,       ",
"           .sg%.......tg,       ",
"           .s%       .t>        ",
"           .s%       .t,        ",
"           .3.       .2%        ",
"                                ",
"                                ",
"                                ",
"                                ",
"                                "
};
