/* XPM */
static char *_4_petscuted1682068376[] = {
/* columns rows colors chars-per-pixel */
"32 31 51 1 ",
"  c None",
". c #38352F",
"X c #373630",
"o c #383530",
"O c #393530",
"+ c #383531",
"@ c #393531",
"# c #383630",
"$ c #393631",
"% c #46433A",
"& c #49463C",
"* c #4A473D",
"= c #4D4A3F",
"- c #656258",
"; c #666359",
": c #6B685F",
"> c #6F6C60",
", c #706D62",
"< c #706D63",
"1 c #726F63",
"2 c #726F65",
"3 c #737064",
"4 c #747165",
"5 c #767367",
"6 c #777468",
"7 c #797669",
"8 c #7A776A",
"9 c #7B786E",
"0 c #7C796C",
"q c #7D7A6D",
"w c #8E6D48",
"e c #947149",
"r c #817E6D",
"t c #807D72",
"y c #827F73",
"u c #858270",
"i c #868371",
"p c #848173",
"a c #838075",
"s c #858275",
"d c #8A8775",
"f c #8C897C",
"g c #8D8A7E",
"h c #C6A77D",
"j c #C4A87F",
"k c #908D81",
"l c #B1AE9B",
"z c #B8B5A3",
"x c #BAB7A5",
"c c #BBB8A7",
"v c #C2BFAE",
/* pixels */
"                                ",
"                                ",
"                                ",
"                                ",
"                                ",
"                                ",
"                                ",
"                                ",
"                                ",
"                                ",
"                   o      o     ",
"                  o64    >0.    ",
"                  owj4. 1jeo    ",
"         o        o7ll61ll0o    ",
"        Xk:      o7llllllll0o   ",
"        Xs-      o7lliulldr0o   ",
"        os-      o8llllllll0o   ",
"        Xs-      o7lllllll0.    ",
"        Xsl-oo..oootvvxll9o     ",
"         opcvvvzllxvvvvvvyo     ",
"          ogvvvvvvvvvvvvy$      ",
"           ofvvvvvvvvvvvy$      ",
"           $fv2ooooooo0vy.      ",
"           $g1        9to       ",
"           og2        9to       ",
"           o=%        &=o       ",
"                                ",
"                                ",
"                                ",
"                                ",
"                                "
};
