/* XPM */
static char *_5_petscuted1682068375[] = {
/* columns rows colors chars-per-pixel */
"32 31 47 1 ",
"  c None",
". c #373530",
"X c #383530",
"o c #383531",
"O c #3C3933",
"+ c #403D35",
"@ c #413E38",
"# c #43403A",
"$ c #44413B",
"% c #48453E",
"& c #504537",
"* c #4A4740",
"= c #4B4841",
"- c #4C4943",
"; c #535043",
": c #575446",
"> c #57544B",
", c #58554C",
"< c #58554D",
"1 c #59564F",
"2 c #5B5850",
"3 c #615E4E",
"4 c #656251",
"5 c #D1995A",
"6 c #D6A265",
"7 c #928F80",
"8 c #949181",
"9 c #9E9B8A",
"0 c #A09D8C",
"q c #A19E8F",
"w c #A29F8E",
"e c #A3A08F",
"r c #A6A391",
"t c #A4A192",
"y c #A5A294",
"u c #A8A593",
"i c #A9A694",
"p c #AAA794",
"a c #AAA795",
"s c #B4AD96",
"d c #B1AE9B",
"f c #B4B1A1",
"g c #B5B2A0",
"h c #B6B3A3",
"j c #BFBCAA",
"k c #C0BDAC",
"l c #C2BFAE",
/* pixels */
"                                ",
"                                ",
"                                ",
"                                ",
"                                ",
"                                ",
"                                ",
"                                ",
"                                ",
"                                ",
"                                ",
"                    X     X     ",
"                   *0X   @uX    ",
"           .       &6eX $s5X    ",
"          2qX      *ddq$dda.    ",
"         ,gqX     =ddddddddaX   ",
"         ,7.      =ddr4dda3aX   ",
"         ,7.      =ddddddddaX   ",
"         ,d8XXXXXX=dddddddaX    ",
"          ,glllkdd9=llkdda.     ",
"           1llllllllllllgX      ",
"            ,lllllllllllhX      ",
"            ,lyXXXXXXX%lhX      ",
"            ,yX       %gX       ",
"            ,yX       *gX       ",
"            O;X       O:X       ",
"                                ",
"                                ",
"                                ",
"                                ",
"                                "
};
