/* XPM */
static char *_6_petscuted1682068375[] = {
/* columns rows colors chars-per-pixel */
"32 31 50 1 ",
"  c None",
". c #373530",
"X c #373531",
"o c #383530",
"O c #383531",
"+ c #383630",
"@ c #3C3933",
"# c #44413B",
"$ c #46433C",
"% c #48453E",
"& c #67543D",
"* c #494640",
"= c #4B4841",
"- c #4C4943",
"; c #524F42",
": c #524F47",
"> c #545149",
", c #55524A",
"< c #5A574E",
"1 c #5B5848",
"2 c #5B584F",
"3 c #5B5850",
"4 c #5C5950",
"5 c #5D5A51",
"6 c #5E5B53",
"7 c #6F6C5B",
"8 c #73705F",
"9 c #BA8A54",
"0 c #8F8C7D",
"q c #918E7F",
"w c #D0A46E",
"e c #928F80",
"r c #989583",
"t c #989585",
"y c #999686",
"u c #9C9987",
"i c #A19E8F",
"p c #A29F91",
"a c #BAAB8D",
"s c #A5A290",
"d c #A6A391",
"f c #A5A294",
"g c #B1AE9B",
"h c #B1AE9E",
"j c #B4B19E",
"k c #B2AFA0",
"l c #B5B2A0",
"z c #BFBCAA",
"x c #C0BDAC",
"c c #C2BFAE",
/* pixels */
"                                ",
"                                ",
"                                ",
"                                ",
"                                ",
"                                ",
"                                ",
"                                ",
"                                ",
"                                ",
"                                ",
"                 o     X        ",
"                oy:   o02       ",
"                o9a, oqw&       ",
"                Xtgg,egg2       ",
"       oo      oygggggggg4      ",
"      odc%     oygg7ugg8y2      ",
"      od#      oygggggggg2      ",
"      od#      oyggggggg2       ",
"      osg$ooooooofcclgg2        ",
"       osccccjggzcccccc6        ",
"        okcccccccccccc4         ",
"         .hccccccccccc4         ",
"         .hc-oooooopc3          ",
"         og-       oi4          ",
"        ok*         X;          ",
"        1@                      ",
"                                ",
"                                ",
"                                ",
"                                "
};
