/* XPM */
static char *_7_petscuted1682068375[] = {
/* columns rows colors chars-per-pixel */
"32 31 55 1 ",
"  c None",
". c #38342F",
"X c #38352F",
"o c #373430",
"O c #373630",
"+ c #383530",
"@ c #393530",
"# c #383531",
"$ c #393531",
"% c #383630",
"& c #393631",
"* c #454239",
"= c #49463B",
"- c #4E4B3F",
"; c #5C5847",
": c #625F55",
"> c #7D6243",
", c #636056",
"< c #656258",
"1 c #6B685D",
"2 c #6C695E",
"3 c #6D6A60",
"4 c #6E6B62",
"5 c #726F63",
"6 c #726F65",
"7 c #737064",
"8 c #787564",
"9 c #777468",
"0 c #797669",
"q c #7A776C",
"w c #7C7968",
"e c #7B786E",
"r c #7D7A6F",
"t c #7F7C70",
"y c #A57C4E",
"u c #807D70",
"i c #817E71",
"p c #807D72",
"a c #827F73",
"s c #838072",
"d c #878476",
"f c #888577",
"g c #8A8778",
"h c #8F8C7A",
"j c #8F8C7F",
"k c #93907E",
"l c #CBA676",
"z c #908D81",
"x c #928F82",
"c c #B1AE9B",
"v c #B8B5A3",
"b c #BAB7A5",
"n c #BBB8A7",
"m c #C0A985",
"M c #C2BFAE",
/* pixels */
"                                ",
"                                ",
"                                ",
"                                ",
"                                ",
"                                ",
"                                ",
"                                ",
"                                ",
"                                ",
"                                ",
"                  X     @       ",
"                 1a.   ,fX      ",
"       @         >la@ ,myX      ",
"      @aq        1ccs<ccfX      ",
"      @06       1ccccccccgo     ",
"      @07       2cchwcck8go     ",
"      @q7       2ccccccccgo     ",
"       @97o@@o  2cccccccfX      ",
"       @9nMMMs..@6MMnccd@       ",
"        .tMMMnccvMMMMMMx@       ",
"         @rMMMMMMMMMMMzO        ",
"         @rMMMMMMMMMMMzo        ",
"           eso@%o@o4Mj@         ",
"            =;      4j@         ",
"                    2jo         ",
"                    *-@         ",
"                                ",
"                                ",
"                                ",
"                                "
};
