/* XPM */
static char *_8_petscuted1682068375[] = {
/* columns rows colors chars-per-pixel */
"32 31 41 1 ",
"  c None",
". c #38352F",
"X c #373530",
"o c #383530",
"O c #383630",
"+ c #3A3731",
"@ c #3B3833",
"# c #3C3932",
"$ c #3C3934",
"% c #3D3A34",
"& c #3E3B35",
"* c #3E3B36",
"= c #3F3C36",
"- c #403A32",
"; c #48453F",
": c #4A4740",
"> c #4B4842",
", c #4C4942",
"< c #4D4A43",
"1 c #524F48",
"2 c #5A5747",
"3 c #5B5848",
"4 c #5C5949",
"5 c #5E5B4B",
"6 c #DAA05F",
"7 c #9D9A89",
"8 c #9F9C8B",
"9 c #A09D8C",
"0 c #ADAA97",
"q c #AEAB98",
"w c #AFAC99",
"e c #B0AD9A",
"r c #B1AE9B",
"t c #B2AF9C",
"y c #B3B09E",
"u c #B3B0A1",
"i c #B5B2A2",
"p c #BFBCAB",
"a c #C0BDAC",
"s c #C0BDAD",
"d c #C2BFAE",
/* pixels */
"                                ",
"                                ",
"                                ",
"                                ",
"                                ",
"                                ",
"                                ",
"                                ",
"                                ",
"                                ",
"                                ",
"                  o     o       ",
"                 &0o   o0&      ",
"                 -6qo oq6-      ",
"                 &rrworrr&      ",
"      oo        =rrrrrrrrr=     ",
"     1p7X       =rrw4rrr5q=     ",
"      ,r8o      =rrrrrrrrr=     ",
"       ,r9ooo.  =rrrrrrrr&      ",
"        >ydddi..o&dddrrr@       ",
"         >ddddrrrddddddd&       ",
"          :dddddddddddd@        ",
"          :dddddddddddd@        ",
"           ;uoooooo&ddo         ",
"            #3      @do         ",
"                   @do          ",
"                   2.           ",
"                                ",
"                                ",
"                                ",
"                                "
};
