/* XPM */
static char *_9_petscuted1682068375[] = {
/* columns rows colors chars-per-pixel */
"32 31 54 1 ",
"  c None",
". c #383530",
"X c #393530",
"o c #383531",
"O c #383630",
"+ c #393630",
"@ c #393631",
"# c #413E36",
"$ c #454239",
"% c #524F42",
"& c #545149",
"* c #56534A",
"= c #58554E",
"- c #5B5848",
"; c #5C5950",
": c #5D5A52",
"> c #5F5C53",
", c #7D6243",
"< c #626056",
"1 c #646157",
"2 c #646158",
"3 c #6A675C",
"4 c #6B685D",
"5 c #6D6A5F",
"6 c #6D6A61",
"7 c #6F6C62",
"8 c #716E64",
"9 c #7A7766",
"0 c #7E7B6A",
"q c #7F7C6F",
"w c #A47C4E",
"e c #817E70",
"r c #888577",
"t c #898678",
"y c #8B8879",
"u c #8D8A78",
"i c #8E8B7F",
"p c #918E7C",
"a c #CAA676",
"s c #908D80",
"d c #939083",
"f c #959282",
"g c #969383",
"h c #9E9B8E",
"j c #A09D8F",
"k c #A3A092",
"l c #B1AE9B",
"z c #B6B3A1",
"x c #B7B4A2",
"c c #BCB9A8",
"v c #BDBAA8",
"b c #BEBBA9",
"n c #C0A985",
"m c #C2BFAE",
/* pixels */
"                                ",
"                                ",
"                                ",
"                                ",
"                                ",
"                                ",
"                                ",
"                                ",
"                                ",
"                                ",
"                                ",
"                                ",
"                  .     .       ",
"                 .t<   .q5      ",
"        .        .wn1..ea,      ",
"       .k=      .tllllllll5     ",
"       .d&      .tll9pll0y5     ",
"       .g*      .tlllllll5      ",
"        +d*     ..dmmxll3       ",
"        +dv:....yvmmmmmm8       ",
"        +dmmmmzlvmmmmmm7        ",
"         +jmmmmmmmmmmmm7        ",
"          +hmmmm2...sm6         ",
"          +hm>..    .s6         ",
"          .h:       -$          ",
"          .h:                   ",
"          .%#                   ",
"                                ",
"                                ",
"                                ",
"                                "
};
