/* XPM */
static char *_0_petscuted1682068375[] = {
/* columns rows colors chars-per-pixel */
"32 31 55 1 ",
"  c None",
". c #38342F",
"X c #373530",
"o c #383530",
"O c #393530",
"+ c #383531",
"@ c #393531",
"# c #393631",
"$ c #403D36",
"% c #4E4B3F",
"& c #66533D",
"* c #514F47",
"= c #535048",
"- c #545149",
"; c #5A574E",
": c #5A574F",
"> c #5B5848",
", c #5B584F",
"< c #5C5950",
"1 c #5D5A51",
"2 c #5F5C53",
"3 c #676459",
"4 c #68655B",
"5 c #6A675E",
"6 c #6C6959",
"7 c #6C695F",
"8 c #706D5C",
"9 c #827F72",
"0 c #BB8B54",
"q c #848173",
"w c #8E8B7F",
"e c #908D7E",
"r c #928F7F",
"t c #D0A46E",
"y c #908D80",
"u c #918E82",
"i c #939081",
"p c #939083",
"a c #979484",
"s c #999686",
"d c #9A9787",
"f c #9B9886",
"g c #989588",
"h c #9F9C89",
"j c #A29F90",
"k c #BAAB8E",
"l c #A3A092",
"z c #A5A293",
"x c #B1AE9B",
"c c #B6B3A1",
"v c #B7B4A2",
"b c #B8B5A2",
"n c #BCB9A8",
"m c #BEBBA9",
"M c #C2BFAE",
/* pixels */
"                                ",
"                                ",
"                                ",
"                                ",
"                                ",
"                                ",
"                                ",
"                                ",
"                                ",
"                                ",
"                   o     .      ",
"                  ,eo   *sX     ",
"                  &tro =k0o     ",
"                  ;xxp-xxsX     ",
"                 ,xxxxxxxxfo    ",
"         oo      ,xxf8xxh6go    ",
"        5byo     ,xxxxxxxxso    ",
"        39X      ,xxxxxxxso     ",
"        49o      o2MMmxxs.      ",
"        4xqooooX1cMMMMMMl.      ",
"         3vMMMmxcMMMMMMlo       ",
"          7MMMMMMMMMMMMlo       ",
"           5MMMMgooo1Mjo        ",
"           5Mpooo    ;jo        ",
"           5yo        $>        ",
"          7yo                   ",
"          *o                    ",
"                                ",
"                                ",
"                                ",
"                                "
};
