/* XPM */
static char *_1_petscuted1682068375[] = {
/* columns rows colors chars-per-pixel */
"32 31 49 1 ",
"  c None",
". c #38352F",
"X c #383530",
"o c #383630",
"O c #393630",
"+ c #393631",
"@ c #3A3732",
"# c #3B3832",
"$ c #3B3833",
"% c #3C3933",
"& c #3D3A34",
"* c #3E3B35",
"= c #403D37",
"- c #46433C",
"; c #47443D",
": c #49463F",
"> c #564938",
", c #4C4943",
"< c #4D4A42",
"1 c #4E4B44",
"2 c #504D45",
"3 c #504D46",
"4 c #565345",
"5 c #595647",
"6 c #666352",
"7 c #6A6756",
"8 c #CB9558",
"9 c #D5A268",
"0 c #9C9989",
"q c #9E9B8A",
"w c #9F9C8B",
"e c #A19E8C",
"r c #A5A290",
"t c #A6A391",
"y c #AFAC99",
"u c #AFAC9D",
"i c #B6AC94",
"p c #B0AE9B",
"a c #B1AE9B",
"s c #B2AF9C",
"d c #B1AE9E",
"f c #B3B09E",
"g c #B4B1A1",
"h c #BAB7A7",
"j c #BEBBAA",
"k c #BFBCAC",
"l c #C0BDAC",
"z c #C1BEAD",
"x c #C2BFAE",
/* pixels */
"                                ",
"                                ",
"                                ",
"                                ",
"                                ",
"                                ",
"                                ",
"                                ",
"                                ",
"                                ",
"                                ",
"                   X     X      ",
"                  Xr-   X01     ",
"         X        X8i; Xw9>     ",
"        %lX       Xraa:waa1     ",
"        $yX      Xraaaaaaaa2    ",
"        $yX      Xtsa6raa7e2    ",
"         $fX     Xraasaaaaa2    ",
"         Xal%XX  Xtsssusaa1     ",
"         $sxxxl=XXXgxlssa<      ",
"          Xlxxxfaalxxxxxl2      ",
"           Xlxxxxlxxxxxx1       ",
"           Xkl*hxxxxxxxx1       ",
"            Xj*XXXXXXsx1        ",
"             X5      Xu,        ",
"                     Xu1        ",
"                     X4*        ",
"                                ",
"                                ",
"                                ",
"                                "
};
