/* XPM */
static char *_2_petscuted1682084170[] = {
/* columns rows colors chars-per-pixel */
"32 31 57 1 ",
"  c None",
". c #38342F",
"X c #38352F",
"o c #373630",
"O c #383530",
"+ c #393530",
"@ c #383531",
"# c #393531",
"$ c #383630",
"% c #393631",
"& c #49463C",
"* c #4C493E",
"= c #5C5849",
"- c #636056",
"; c #656258",
": c #666359",
"> c #6F6C60",
", c #706D62",
"< c #726F63",
"1 c #726F65",
"2 c #737064",
"3 c #737066",
"4 c #747165",
"5 c #767367",
"6 c #777468",
"7 c #797669",
"8 c #7A776A",
"9 c #7B786E",
"0 c #7C796C",
"q c #7D7A6D",
"w c #7D7A6F",
"e c #7F7C70",
"r c #8E6D48",
"t c #947149",
"y c #817E6D",
"u c #807D72",
"i c #827F73",
"p c #858270",
"a c #868371",
"s c #848173",
"d c #838075",
"f c #858275",
"g c #878476",
"h c #8A8775",
"j c #878478",
"k c #8A877B",
"l c #8C897C",
"z c #8D8A7E",
"x c #C6A77D",
"c c #C4A87F",
"v c #949184",
"b c #B1AE9B",
"n c #B7B4A2",
"m c #B8B5A3",
"M c #BAB7A5",
"N c #BBB8A7",
"B c #C2BFAE",
/* pixels */
"                                ",
"                                ",
"                                ",
"                                ",
"                                ",
"                                ",
"                                ",
"                                ",
"                                ",
"                                ",
"                                ",
"                   O      O     ",
"                  O72    :0X    ",
"                  orx4O 4ctX    ",
"       OO         O6bb74bbqX    ",
"      Xvn-       O7bbbbbbbbqO   ",
"       Ofb:      O7bbaabbhyqO   ",
"        of:      O7bbbbbbbbqO   ",
"        ofb:OOo  O7bbbbbbb0X    ",
"         OaNBBB1OOOiBBMbb7O     ",
"          OlBBBMbbMBBBBBBfO     ",
"           OlBBBBBBBBBBBiO      ",
"           OkB1dBBBBBBBBiO      ",
"            ok1.OOOOOeBuO       ",
"             O=       0iO       ",
"                    OeeO        ",
"                    =&O         ",
"                                ",
"                                ",
"                                ",
"                                "
};
