/* XPM */
static char *_3_petscuted1682068378[] = {
/* columns rows colors chars-per-pixel */
"32 31 50 1 ",
"  c None",
". c #373530",
"X c #383530",
"o c #383531",
"O c #383630",
"+ c #403D35",
"@ c #413E38",
"# c #43403A",
"$ c #44413B",
"% c #48453E",
"& c #504537",
"* c #494640",
"= c #4A4740",
"- c #4B4841",
"; c #4C4943",
": c #4D4A42",
"> c #535043",
", c #57544B",
"< c #58554C",
"1 c #58554D",
"2 c #59564F",
"3 c #5D5A51",
"4 c #615E4E",
"5 c #656251",
"6 c #D1995A",
"7 c #D6A265",
"8 c #928F80",
"9 c #949181",
"0 c #9F9C8E",
"q c #A09D8C",
"w c #A29F8E",
"e c #A3A08F",
"r c #A6A391",
"t c #A4A192",
"y c #A5A294",
"u c #A8A593",
"i c #A9A694",
"p c #AAA794",
"a c #AAA795",
"s c #AAA798",
"d c #B4AD96",
"f c #B1AE9B",
"g c #B4B19E",
"h c #B4B1A1",
"j c #B5B2A0",
"k c #B6B3A3",
"l c #B7B4A4",
"z c #BFBCAA",
"x c #C0BDAC",
"c c #C2BFAE",
/* pixels */
"                                ",
"                                ",
"                                ",
"                                ",
"                                ",
"                                ",
"                                ",
"                                ",
"                                ",
"                                ",
"                    O     O     ",
"                   =wO   @iO    ",
"                   &7wO @d6O    ",
"                   =ffe@ffiO    ",
"          O       ;ffffffffiO   ",
"         30.      =ffu5ffa4iO   ",
"         18.      ;ffffffffaO   ",
"         ,8X      =fffffffiO    ",
"         18O      O;ccxffuO     ",
"         <f9OOXXO;gcccccclO     ",
"          <gcccxfgcccccckO      ",
"           2cccccccccccckO      ",
"            1ccccsXOO=chO       ",
"            1cyOOO    %hO       ",
"            1tO        OO       ",
"            1tO                 ",
"            +>O                 ",
"                                ",
"                                ",
"                                ",
"                                "
};
