/* XPM */
static char *_f8cb40563574def81d1cc76a751b697xAz3oTJObXJ3upbt[] = {
/* columns rows colors chars-per-pixel */
"32 31 51 1 ",
"  c None",
". c #38352F",
"X c #373531",
"o c #383530",
"O c #383531",
"+ c #383630",
"@ c #3D3A33",
"# c #403D35",
"$ c #44413B",
"% c #46433C",
"& c #48453E",
"* c #67543D",
"= c #4B4841",
"- c #4C4943",
"; c #524F47",
": c #575445",
"> c #545149",
", c #55524A",
"< c #59564F",
"1 c #5A574E",
"2 c #5B5848",
"3 c #5B584F",
"4 c #5B5850",
"5 c #5C5950",
"6 c #5D5A51",
"7 c #5E5B53",
"8 c #6F6C5B",
"9 c #73705F",
"0 c #BA8A54",
"q c #8F8C7D",
"w c #918E7F",
"e c #D0A46E",
"r c #928F80",
"t c #989583",
"y c #989585",
"u c #999686",
"i c #9C9987",
"p c #A19E8F",
"a c #A29F91",
"s c #BAAB8D",
"d c #A5A290",
"f c #A6A391",
"g c #A5A294",
"h c #B1AE9B",
"j c #B1AE9E",
"k c #B4B19E",
"l c #B2AFA0",
"z c #B5B2A0",
"x c #BFBCAA",
"c c #C0BDAC",
"v c #C2BFAE",
/* pixels */
"                                ",
"                                ",
"                                ",
"                                ",
"                                ",
"                                ",
"                                ",
"                                ",
"                                ",
"                                ",
"                                ",
"                                ",
"                 +     X        ",
"                +y;   +q3       ",
"                X0s, +we*       ",
"                +yhh,rhh3       ",
"       ++      +yhhhhhhhh3      ",
"      +fv&     +yjh8ihh9t6      ",
"      +d#      +yhhhhhhhh6      ",
"      +d%      Oyhhhhhhh3       ",
"      +dj$.++OO.+gvvzhh3        ",
"       +dvvvvkhhcvvvvvv7        ",
"        Olvvvvvvvvvvvv6         ",
"         +jvvvvvvvvvvv6         ",
"         +lv-X++++++pv6         ",
"         +j=       +p6          ",
"         +j=      .a<           ",
"         +:@      2#            ",
"                                ",
"                                ",
"                                "
};
