/* XPM */
static char *a79aa65b729b463eccd5c2dcda4c9a6cLS5yiSfl3denKn5L[] = {
/* columns rows colors chars-per-pixel */
"32 31 50 1 ",
"  c None",
". c #38342F",
"X c #38352F",
"o c #373430",
"O c #373630",
"+ c #383530",
"@ c #393530",
"# c #383531",
"$ c #393531",
"% c #383630",
"& c #393631",
"* c #49463C",
"= c #4A473C",
"- c #625F55",
"; c #7D6243",
": c #636056",
"> c #656258",
", c #6B685D",
"< c #6C695E",
"1 c #6D6A60",
"2 c #726F63",
"3 c #726F65",
"4 c #737064",
"5 c #787564",
"6 c #777468",
"7 c #797669",
"8 c #7C7968",
"9 c #7B786E",
"0 c #7D7A6F",
"q c #7F7C70",
"w c #A57C4E",
"e c #807D70",
"r c #817E71",
"t c #807D72",
"y c #838072",
"u c #878476",
"i c #888577",
"p c #8A8778",
"a c #8F8C7A",
"s c #8F8C7F",
"d c #93907E",
"f c #CBA676",
"g c #908D81",
"h c #928F82",
"j c #B1AE9B",
"k c #B8B5A3",
"l c #BAB7A5",
"z c #BBB8A7",
"x c #C0A985",
"c c #C2BFAE",
/* pixels */
"                                ",
"                                ",
"                                ",
"                                ",
"                                ",
"                                ",
"                                ",
"                                ",
"                                ",
"                                ",
"                                ",
"                  %     %       ",
"                 ,e%   -iX      ",
"                 ;fe% :xwX      ",
"                 ,jjy>jjiX      ",
"        %       ,jjjjjjjjpo     ",
"       #q9      ,jja8jjd5po     ",
"      %7kq      1jjjjjjjjpo     ",
"      %73       ,jjjjjjjpX      ",
"      %73        4cczjjio       ",
"      %7j4%%%%%#1kccccch%       ",
"       %7kccckjjkccccccg%       ",
"        %qccccccccccccg%        ",
"         #qcccccccccccg%        ",
"         %qcq#%%%%%%1cgo        ",
"         %qq%       1s%         ",
"         %0q%        %          ",
"         %==%                   ",
"                                ",
"                                ",
"                                "
};
