/* XPM */
static char *e15c9d8893f94f739d6cb23914273061dQ4QkLQPKiKlrRHD[] = {
/* columns rows colors chars-per-pixel */
"32 31 36 1 ",
"  c None",
". c #373530",
"X c #383530",
"o c #383630",
"O c #3A3731",
"+ c #3B3833",
"@ c #3C3934",
"# c #3D3A34",
"$ c #3E3B35",
"% c #3E3B36",
"& c #3F3C36",
"* c #403A32",
"= c #4A4740",
"- c #4B4842",
"; c #4C4942",
": c #4F4C45",
"> c #565345",
", c #5B5848",
"< c #5C5949",
"1 c #5E5B4B",
"2 c #DAA05F",
"3 c #9F9C8B",
"4 c #A09D8C",
"5 c #ADAA97",
"6 c #AEAB98",
"7 c #ADAA9B",
"8 c #AFAC99",
"9 c #B0AD9A",
"0 c #B1AE9B",
"q c #B2AF9C",
"w c #B0AD9E",
"e c #B2AF9F",
"r c #B3B09E",
"t c #B3B0A1",
"y c #C0BDAC",
"u c #C2BFAE",
/* pixels */
"                                ",
"                                ",
"                                ",
"                                ",
"                                ",
"                                ",
"                                ",
"                                ",
"                                ",
"                                ",
"                                ",
"                                ",
"                  X     X       ",
"                 $5X   X5$      ",
"                 *26. X62*      ",
"        .        $000.000$      ",
"       :6X      &000q00000&     ",
"       ;3X      &008,00015&     ",
"       ;3.      &000000000$     ",
"       ;3X      &00000000$      ",
"       ;r3....XXX$uuuqq0$       ",
"        -ruuuu00quuuuuuu$       ",
"         -uuuuuuuuuuuuu$        ",
"          =uuuuuuuuuuuuX        ",
"          =utXXXXXXX+uu$        ",
"          =eX       XuX         ",
"         -qX        +uX         ",
"         >.         o,X         ",
"                                ",
"                                ",
"                                "
};
