/* XPM */
static char *c56ce0d4b9414597d63c454af8689405GNfEPxf4kJsL4FYw[] = {
/* columns rows colors chars-per-pixel */
"32 31 49 1 ",
"  c None",
". c #38342F",
"X c #383530",
"o c #393530",
"O c #383531",
"+ c #393531",
"@ c #383630",
"# c #393630",
"$ c #393631",
"% c #454239",
"& c #4E4B3F",
"* c #545149",
"= c #58554E",
"- c #5D5A52",
"; c #5F5C53",
": c #605D53",
"> c #7D6243",
", c #626056",
"< c #646157",
"1 c #656258",
"2 c #6A675C",
"3 c #6B685D",
"4 c #6D6A5F",
"5 c #6D6A61",
"6 c #6F6C62",
"7 c #7A7766",
"8 c #7E7B6A",
"9 c #7F7C6F",
"0 c #A47C4E",
"q c #817E70",
"w c #827F72",
"e c #888577",
"r c #898678",
"t c #8D8A78",
"y c #8E8B7F",
"u c #918E7C",
"i c #CAA676",
"p c #939083",
"a c #959282",
"s c #969383",
"d c #9E9B8E",
"f c #A09D8F",
"g c #A5A293",
"h c #B1AE9B",
"j c #B6B3A1",
"k c #B7B4A2",
"l c #BEBBA9",
"z c #C0A985",
"x c #C2BFAE",
/* pixels */
"                                ",
"                                ",
"                                ",
"                                ",
"                                ",
"                                ",
"                                ",
"                                ",
"                                ",
"                                ",
"                                ",
"                                ",
"                                ",
"                  X     X       ",
"                 $r:   X93      ",
"                 X0z< .qi>      ",
"       XX        $rhh1ehh2      ",
"      .gx=      Xrhhhhhhhh4     ",
"       Xs*      Xrhh7uhh8t3     ",
"       Xs*      Xrhhhhhhhh4     ",
"       Xs*XXXXXXXrhhhhhhh3      ",
"        Xpxxxxjhh:pxxkhh2       ",
"         .dxxxxxxxxxxxx6        ",
"          .dxxxxxxxxxxx6        ",
"          Xdx:XXXXXXXyx6        ",
"          Xd-       Xy5         ",
"           X        Xp5         ",
"                    X&%         ",
"                                ",
"                                ",
"                                "
};
