/* XPM */
static char *d2923fd694eb4fd5b70c162df437f8bfxVD8mOQHakLJhoJR[] = {
/* columns rows colors chars-per-pixel */
"32 31 46 1 ",
"  c None",
". c #38342F",
"X c #373530",
"o c #383530",
"O c #393530",
"+ c #383531",
"@ c #393531",
"# c #383630",
"$ c #454239",
"% c #4F4C40",
"& c #524F42",
"* c #514F47",
"= c #535048",
"- c #545149",
"; c #59564D",
": c #5A574E",
"> c #5A574F",
", c #5B584F",
"< c #5C5950",
"1 c #5F5C53",
"2 c #68655B",
"3 c #6A675E",
"4 c #6B685D",
"5 c #6C695F",
"6 c #726F65",
"7 c #827F72",
"8 c #BB8B54",
"9 c #848173",
"0 c #89867A",
"q c #928F7F",
"w c #918E82",
"e c #939081",
"r c #939083",
"t c #979484",
"y c #999686",
"u c #9A9787",
"i c #A09D8F",
"p c #A29F90",
"a c #BAAB8E",
"s c #A3A092",
"d c #A5A293",
"f c #B1AE9B",
"g c #B6B3A1",
"h c #BCB9A8",
"j c #BEBBA9",
"k c #C2BFAE",
/* pixels */
"                                ",
"                                ",
"                                ",
"                                ",
"                                ",
"                                ",
"                                ",
"                                ",
"                                ",
"                                ",
"                                ",
"                                ",
"                         .      ",
"                    o   *yX     ",
"                   ;qo =a8X     ",
"                  ;ffe-ffyX     ",
"                 <ffffffffuo    ",
"       ooo       <ffffffffuo    ",
"      4ff7o      <ffffffffuo    ",
"      6037o      ;fffffffyo     ",
"       o27X oooXoo1kkjfft+      ",
"        2f93kkjffgkkkkkkdo      ",
"         o5kkkkkkkkkkkkso       ",
"           3kkkkkkkkkkkso       ",
"           3keooooooX<kso       ",
"           3wo       ;so        ",
"           3wo      <io         ",
"           $%o      &o          ",
"                                ",
"                                ",
"                                "
};
