/* XPM */
static char *_6c861b7f8124245fbc03ea8c3bb71ffPYjgVyLHc7NQipsp[] = {
/* columns rows colors chars-per-pixel */
"32 31 41 1 ",
"  c None",
". c #383530",
"X c #383630",
"o c #393630",
"O c #393631",
"+ c #3A3732",
"@ c #3B3833",
"# c #3C3934",
"$ c #3D3A35",
"% c #3E3B35",
"& c #46433C",
"* c #47443D",
"= c #49463F",
"- c #564938",
"; c #4C4943",
": c #4D4A42",
"> c #4E4B44",
", c #504D45",
"< c #504D46",
"1 c #5A5748",
"2 c #666352",
"3 c #6A6756",
"4 c #CB9558",
"5 c #D5A268",
"6 c #9C9989",
"7 c #9E9B8A",
"8 c #9F9C8B",
"9 c #A19E8C",
"0 c #A5A290",
"q c #A6A391",
"w c #AFAC99",
"e c #AFAC9D",
"r c #B6AC94",
"t c #B1AE9B",
"y c #B2AF9C",
"u c #B3B09E",
"i c #B4B1A1",
"p c #BFBCAC",
"a c #C0BDAC",
"s c #C1BEAD",
"d c #C2BFAE",
/* pixels */
"                                ",
"                                ",
"                                ",
"                                ",
"                                ",
"                                ",
"                                ",
"                                ",
"                                ",
"                                ",
"                                ",
"                   .     .      ",
"                  .0&   .6>     ",
"                  .4r* .85-     ",
"                  .0tt=8tt>     ",
"                 .0tttttttt,    ",
"        ..       .qyt20tt39,    ",
"       #dd.      .0ttttttty,    ",
"        .t.      .qytttttt:     ",
"        .w.       .iddutt:      ",
"        #w........0pddddd,      ",
"         @tddddyttddddddd,      ",
"          .ddddddddddddd>       ",
"           .dddddddddddd>       ",
"           .pd%.......ed>       ",
"           .p#       .e>        ",
"           .p#        .         ",
"           .1.                  ",
"                                ",
"                                ",
"                                "
};
