/* XPM */
static char *_ecf9c5e81664d78b5a4521da6c8cb41WgEgSWFBlf83cg8s[] = {
/* columns rows colors chars-per-pixel */
"32 31 52 1 ",
"  c None",
". c #38352F",
"X c #373630",
"o c #383530",
"O c #393530",
"+ c #383531",
"@ c #393531",
"# c #383630",
"$ c #393631",
"% c #454239",
"& c #49463C",
"* c #4A473D",
"= c #5B5848",
"- c #656258",
"; c #666359",
": c #6B685F",
"> c #6E6B62",
", c #6F6C60",
"< c #706D62",
"1 c #706D63",
"2 c #726F63",
"3 c #726F65",
"4 c #737064",
"5 c #747165",
"6 c #767367",
"7 c #777468",
"8 c #797669",
"9 c #7A776A",
"0 c #7B786E",
"q c #7C796C",
"w c #7D7A6D",
"e c #8E6D48",
"r c #947149",
"t c #817E6D",
"y c #807D72",
"u c #827F73",
"i c #858270",
"p c #868371",
"a c #848173",
"s c #838075",
"d c #858275",
"f c #8A8775",
"g c #8C897C",
"h c #8D8A7E",
"j c #C6A77D",
"k c #C4A87F",
"l c #908D81",
"z c #B1AE9B",
"x c #B8B5A3",
"c c #BAB7A5",
"v c #BBB8A7",
"b c #C2BFAE",
/* pixels */
"                                ",
"                                ",
"                                ",
"                                ",
"                                ",
"                                ",
"                                ",
"                                ",
"                                ",
"                                ",
"                                ",
"                                ",
"                   o      o     ",
"                  o74    ,q.    ",
"                  oej6o <kr.    ",
"         o        o7zz64zzq.    ",
"        ol:      o9zzzzzzzzqo   ",
"        Xd-      o9zzppzzftqo   ",
"        Xd-      o9zzzzzzzzqo   ",
"        Xd-      .9zzzzzzzq.    ",
"        Xdz;oooooooybbczzqo     ",
"         opvbbbxzzcbbbbbbdo     ",
"          Xhbbbbbbbbbbbbyo      ",
"           ohbbbbbbbbbbbdo      ",
"           ohb1ooooooo0byo      ",
"           oh1        0yo       ",
"          ol>         qyo       ",
"          =%          **o       ",
"                                ",
"                                ",
"                                "
};
