/* XPM */
static char *_b70d0c09a7c4afcd5c2691606901d36qI6KOA5vHrs3FSUV[] = {
/* columns rows colors chars-per-pixel */
"32 31 46 1 ",
"  c None",
". c #38352F",
"X c #373530",
"o c #383530",
"O c #383531",
"+ c #3C3933",
"@ c #413E38",
"# c #43403A",
"$ c #44413B",
"% c #48453E",
"& c #504537",
"* c #4A4740",
"= c #4B4841",
"- c #4C4943",
"; c #575446",
": c #57544B",
"> c #58554C",
", c #58554D",
"< c #59564F",
"1 c #5B5850",
"2 c #615E4E",
"3 c #656251",
"4 c #D1995A",
"5 c #D6A265",
"6 c #928F80",
"7 c #949181",
"8 c #9E9B8A",
"9 c #A09D8C",
"0 c #A19E8F",
"q c #A29F8E",
"w c #A3A08F",
"e c #A6A391",
"r c #A4A192",
"t c #A5A294",
"y c #A8A593",
"u c #A9A694",
"i c #AAA794",
"p c #AAA795",
"a c #B4AD96",
"s c #B1AE9B",
"d c #B4B1A1",
"f c #B5B2A0",
"g c #B6B3A3",
"h c #BFBCAA",
"j c #C0BDAC",
"k c #C2BFAE",
/* pixels */
"                                ",
"                                ",
"                                ",
"                                ",
"                                ",
"                                ",
"                                ",
"                                ",
"                                ",
"                                ",
"                                ",
"                                ",
"                                ",
"                    o     o     ",
"                   *qX   @uo    ",
"           X       &5qo #a4o    ",
"          10o      *ssq#ssuo    ",
"         ,dqo     =sssssssspo   ",
"         ,6X      =sse3ssu2po   ",
"         >6X      =sssssssspo   ",
"         ,s7oooooo=sssssssuo    ",
"          :fkkkhss8-kkkssyo     ",
"           ,kkkkkkkkkkkkgo      ",
"            ,kkkkkkkkkkkgo      ",
"            ,ktooooooo%kgo      ",
"            ,eo       %do       ",
"             o        %do       ",
"                      +;o       ",
"                                ",
"                                ",
"                                "
};
